<svg xmlns="http://www.w3.org/2000/svg" width="22" height="22" viewBox="0 0 22 22">
    <path fill-rule="evenodd" clip-rule="evenodd" d="M15.2808 12.0352C16.5366 12.8877 17.4166 14.0427 17.4166 15.5827V18.3327H21.0833V15.5827C21.0833 13.5843 17.8108 12.4018 15.2808 12.0352Z" fill="currentColor"/>
    <path d="M8.24992 11.0013C10.275 11.0013 11.9166 9.35968 11.9166 7.33464C11.9166 5.30959 10.275 3.66797 8.24992 3.66797C6.22487 3.66797 4.58325 5.30959 4.58325 7.33464C4.58325 9.35968 6.22487 11.0013 8.24992 11.0013Z" fill="currentColor"/>
    <path fill-rule="evenodd" clip-rule="evenodd" d="M13.7499 11.0013C15.7758 11.0013 17.4166 9.36047 17.4166 7.33464C17.4166 5.3088 15.7758 3.66797 13.7499 3.66797C13.3191 3.66797 12.9158 3.75964 12.5308 3.88797C13.2916 4.83214 13.7499 6.03297 13.7499 7.33464C13.7499 8.6363 13.2916 9.83714 12.5308 10.7813C12.9158 10.9096 13.3191 11.0013 13.7499 11.0013Z" fill="currentColor"/>
    <path fill-rule="evenodd" clip-rule="evenodd" d="M8.25008 11.918C5.80258 11.918 0.916748 13.1463 0.916748 15.5846V18.3346H15.5834V15.5846C15.5834 13.1463 10.6976 11.918 8.25008 11.918Z" fill="currentColor"/>
</svg>
